<?xml version="1.0" encoding="UTF-8" standalone="no"?>
<svg width="246px" height="246px" viewBox="0 0 246 246" version="1.1" xmlns="http://www.w3.org/2000/svg" xmlns:xlink="http://www.w3.org/1999/xlink">
    <!-- Generator: Sketch 39 (31667) - http://www.bohemiancoding.com/sketch -->
    <title>Artboard 1</title>
    <desc>Created with Sketch.</desc>
    <defs>
        <rect id="path-1" x="0" y="0" width="246" height="246"/>
    </defs>
    <g id="Page-1" stroke="none" stroke-width="1" fill="none" fill-rule="evenodd" opacity="0.148787313">
        <g id="Artboard-1">
            <g id="Group">
                <mask id="mask-2" fill="white">
                    <use xlink:href="#path-1"/>
                </mask>
                <g id="Mask"/>
                <g mask="url(#mask-2)">
                    <g transform="translate(-3.000000, -3.000000)">
                        <path d="M64.5,68 C66.4329966,68 68,66.4329966 68,64.5 C68,62.5670034 66.4329966,61 64.5,61 C62.5670034,61 61,62.5670034 61,64.5 C61,66.4329966 62.5670034,68 64.5,68 Z" id="Oval-1" stroke="none" fill="#303030" fill-rule="evenodd"/>
                        <path d="M64.5,192 C66.4329966,192 68,190.432997 68,188.5 C68,186.567003 66.4329966,185 64.5,185 C62.5670034,185 61,186.567003 61,188.5 C61,190.432997 62.5670034,192 64.5,192 Z" id="Oval-1-Copy" stroke="none" fill="#303030" fill-rule="evenodd"/>
                        <path d="M187.5,192 C189.432997,192 191,190.432997 191,188.5 C191,186.567003 189.432997,185 187.5,185 C185.567003,185 184,186.567003 184,188.5 C184,190.432997 185.567003,192 187.5,192 Z" id="Oval-1-Copy-2" stroke="none" fill="#303030" fill-rule="evenodd"/>
                        <path d="M126.5,129 C128.432997,129 130,127.432997 130,125.5 C130,123.567003 128.432997,122 126.5,122 C124.567003,122 123,123.567003 123,125.5 C123,127.432997 124.567003,129 126.5,129 Z" id="Oval-1-Copy-3" stroke="none" fill="#303030" fill-rule="evenodd"/>
                        <path d="M126.5,7 C128.432997,7 130,5.43299662 130,3.5 C130,1.56700338 128.432997,0 126.5,0 C124.567003,0 123,1.56700338 123,3.5 C123,5.43299662 124.567003,7 126.5,7 Z" id="Oval-1-Copy-10" stroke="none" fill="#303030" fill-rule="evenodd"/>
                        <path d="M248.5,7 C250.432997,7 252,5.43299662 252,3.5 C252,1.56700338 250.432997,0 248.5,0 C246.567003,0 245,1.56700338 245,3.5 C245,5.43299662 246.567003,7 248.5,7 Z" id="Oval-1-Copy-11" stroke="none" fill="#303030" fill-rule="evenodd"/>
                        <path d="M187.5,68 C189.432997,68 191,66.4329966 191,64.5 C191,62.5670034 189.432997,61 187.5,61 C185.567003,61 184,62.5670034 184,64.5 C184,66.4329966 185.567003,68 187.5,68 Z" id="Oval-1-Copy-4" stroke="none" fill="#303030" fill-rule="evenodd"/>
                        <path d="M248.5,129 C250.432997,129 252,127.432997 252,125.5 C252,123.567003 250.432997,122 248.5,122 C246.567003,122 245,123.567003 245,125.5 C245,127.432997 246.567003,129 248.5,129 Z" id="Oval-1-Copy-5" stroke="none" fill="#303030" fill-rule="evenodd"/>
                        <path d="M126.5,252 C128.432997,252 130,250.432997 130,248.5 C130,246.567003 128.432997,245 126.5,245 C124.567003,245 123,246.567003 123,248.5 C123,250.432997 124.567003,252 126.5,252 Z" id="Oval-1-Copy-6" stroke="none" fill="#303030" fill-rule="evenodd"/>
                        <path d="M248.5,252 C250.432997,252 252,250.432997 252,248.5 C252,246.567003 250.432997,245 248.5,245 C246.567003,245 245,246.567003 245,248.5 C245,250.432997 246.567003,252 248.5,252 Z" id="Oval-1-Copy-12" stroke="none" fill="#303030" fill-rule="evenodd"/>
                        <path d="M3.5,129 C5.43299662,129 7,127.432997 7,125.5 C7,123.567003 5.43299662,122 3.5,122 C1.56700338,122 0,123.567003 0,125.5 C0,127.432997 1.56700338,129 3.5,129 Z" id="Oval-1-Copy-8" stroke="none" fill="#303030" fill-rule="evenodd"/>
                        <path d="M3.5,7 C5.43299662,7 7,5.43299662 7,3.5 C7,1.56700338 5.43299662,0 3.5,0 C1.56700338,0 0,1.56700338 0,3.5 C0,5.43299662 1.56700338,7 3.5,7 Z" id="Oval-1-Copy-9" stroke="none" fill="#303030" fill-rule="evenodd"/>
                        <path d="M3.5,252 C5.43299662,252 7,250.432997 7,248.5 C7,246.567003 5.43299662,245 3.5,245 C1.56700338,245 0,246.567003 0,248.5 C0,250.432997 1.56700338,252 3.5,252 Z" id="Oval-1-Copy-7" stroke="none" fill="#303030" fill-rule="evenodd"/>
                        <path d="M5.5,5.5 L62.5,62.5" id="Line" stroke="#303030" stroke-width="1" stroke-linecap="square" fill="none"/>
                        <path d="M189.5,189.5 L246.5,246.5" id="Line-Copy" stroke="#303030" stroke-width="1" stroke-linecap="square" fill="none"/>
                        <path d="M128.5,66.5 L185.5,123.5" id="Line-Copy-2" stroke="#303030" stroke-width="1" stroke-linecap="square" fill="none" transform="translate(157.000000, 95.000000) scale(-1, 1) translate(-157.000000, -95.000000) "/>
                    </g>
                </g>
            </g>
        </g>
    </g>
</svg>